<svg width="41" height="38" viewBox="0 0 41 38" fill="none" xmlns="http://www.w3.org/2000/svg">
<path d="M20.8 37.2C14.6 37.2 9.66667 35.5333 6 32.2C2.4 28.8 0.6 24.2667 0.6 18.6C0.6 12.9333 2.4 8.43333 6 5.1C9.66667 1.7 14.6 -1.66893e-06 20.8 -1.66893e-06C26.9333 -1.66893e-06 31.8333 1.7 35.5 5.1C39.1667 8.43333 41 12.9333 41 18.6C41 24.2667 39.1667 28.8 35.5 32.2C31.8333 35.5333 26.9333 37.2 20.8 37.2ZM20.8 26.3C23.1333 26.3 25 25.5667 26.4 24.1C27.8667 22.6333 28.6 20.7667 28.6 18.5C28.6 16.2333 27.8667 14.4 26.4 13C24.9333 11.5333 23.0667 10.8 20.8 10.8C18.4667 10.8 16.5667 11.5333 15.1 13C13.6333 14.4 12.9 16.2333 12.9 18.5C12.9 20.8333 13.6333 22.7333 15.1 24.2C16.5667 25.6 18.4667 26.3 20.8 26.3Z" fill="white"/>
</svg>
