<svg width="66" height="66" viewBox="0 0 66 66" fill="none" xmlns="http://www.w3.org/2000/svg">
<path d="M46.847 50.2824C57.1467 50.2824 65.4962 42.089 65.4962 31.982C65.4962 21.8749 57.1467 13.6816 46.847 13.6816C36.5472 13.6816 28.1977 21.8749 28.1977 31.982C28.1977 42.089 36.5472 50.2824 46.847 50.2824Z" fill="#FCB641"/>
<path d="M46.0747 8.97536C45.4691 8.97536 44.9777 8.4839 44.9777 7.87835V1.29626C44.9777 0.690704 45.4691 0.199242 46.0747 0.199242C46.6802 0.199242 47.1717 0.690704 47.1717 1.29626V7.87835C47.1717 8.4839 46.6802 8.97536 46.0747 8.97536Z" fill="#FCB641"/>
<path d="M60.2481 13.5422C59.9673 13.5422 59.6864 13.4347 59.4725 13.2208C59.0436 12.7919 59.0436 12.0986 59.4725 11.6696L64.1271 7.01499C64.5561 6.58606 65.2494 6.58606 65.6783 7.01499C66.1073 7.44392 66.1073 8.13724 65.6783 8.56617L61.0237 13.2208C60.8098 13.4347 60.5289 13.5422 60.2481 13.5422Z" fill="#FCB641"/>
<path d="M28.6551 16.7872C28.3743 16.7872 28.0935 16.6797 27.8795 16.4658L23.226 11.8122C22.7971 11.3833 22.7971 10.69 23.226 10.2611C23.6549 9.83213 24.3482 9.83213 24.7772 10.2611L29.4307 14.9146C29.8596 15.3435 29.8596 16.0368 29.4307 16.4658C29.2168 16.6797 28.936 16.7872 28.6551 16.7872Z" fill="#FCB641"/>
<path d="M58.4446 49.5649C58.291 49.5649 52.5964 49.5649 52.5964 49.5649C52.6984 48.4679 52.7664 48.3736 52.7686 47.7176C52.7862 41.8661 48.8797 36.754 43.1654 35.4946C39.9083 34.7772 36.7994 35.307 34.2269 36.6958C31.0883 32.0248 25.8885 28.8741 19.9284 28.5099C19.1616 28.4046 18.3849 28.3421 17.5895 28.3421C7.87547 28.3421 0 36.4688 0 46.4867C0 51.7074 2.15125 56.4015 5.57393 59.7112C8.6006 63.0692 12.8033 65.2391 17.7793 65.6C17.7793 65.6 58.291 65.8008 58.4446 65.8008C62.5189 65.8008 65.8209 62.0698 65.8209 57.6817C65.8209 53.2959 62.5178 49.5649 58.4446 49.5649Z" fill="white"/>
</svg>
