<svg width="66" height="66" viewBox="0 0 66 66" fill="none" xmlns="http://www.w3.org/2000/svg">
<path d="M66 32.9994L58.5492 39.8158L61.5544 49.4582L51.6794 51.5909L49.4582 61.4463L39.8343 58.3767L32.9995 65.8133L26.1657 58.3767L16.5418 61.4463L14.3206 51.5909L4.44448 49.4582L7.45079 39.8158L0 32.9994L7.45079 26.1842L4.44557 16.5418L14.3206 14.408L16.5418 4.55367L26.1657 7.62331L32.9995 0.186722L39.8343 7.62331L49.4582 4.55367L51.6794 14.4091L61.5544 16.5418L58.5492 26.1842L66 32.9994Z" fill="#FCB641"/>
<path d="M32.9995 52.3127C43.4584 52.3127 51.9371 43.8341 51.9371 33.3751C51.9371 22.9161 43.4584 14.4375 32.9995 14.4375C22.5405 14.4375 14.0618 22.9161 14.0618 33.3751C14.0618 43.8341 22.5405 52.3127 32.9995 52.3127Z" fill="#FDC567"/>
</svg>
